<svg preserveAspectRatio="none" width="100%" height="100%" overflow="visible" style="display: block;" viewBox="0 0 50 50" fill="none" xmlns="http://www.w3.org/2000/svg">
<g id="uil:diamond">
<path id="Vector" d="M41.6667 21.5625L29.625 6.125C29.0201 5.4952 28.2923 4.99639 27.4867 4.6595C26.681 4.32261 25.8148 4.15482 24.9416 4.16654C24.0685 4.17826 23.207 4.36924 22.4107 4.72763C21.6144 5.08603 20.9003 5.60419 20.3125 6.25L8.33333 21.5625C7.67009 22.5866 7.3157 23.7799 7.3125 25C7.34834 26.1694 7.70118 27.3072 8.33333 28.2917L8.45833 28.4375L20.4167 43.875C21.0054 44.4984 21.7162 44.9939 22.5047 45.3308C23.2932 45.6677 24.1426 45.8388 25 45.8333C25.8865 45.8325 26.7631 45.6468 27.5738 45.2881C28.3845 44.9294 29.1115 44.4055 29.7083 43.75L41.6667 28.4375C42.3203 27.4048 42.6568 26.2032 42.6346 24.9813C42.6124 23.7593 42.2324 22.5707 41.5417 21.5625H41.6667ZM38.3958 26.0208L26.5833 41.0625C26.1852 41.4291 25.6711 41.6446 25.1306 41.6712C24.59 41.6978 24.0572 41.5341 23.625 41.2083L11.7708 25.9792C11.5938 25.682 11.4936 25.3455 11.4792 25C11.4816 24.6763 11.5526 24.3568 11.6875 24.0625L23.5 9.02083C23.8981 8.65418 24.4122 8.43878 24.9528 8.41213C25.4933 8.38548 26.0261 8.54928 26.4583 8.875L38.1875 24.0417C38.4041 24.377 38.5198 24.7675 38.5208 25.1667C38.5072 25.4622 38.4364 25.7522 38.3125 26.0208H38.3958Z" fill="#6F1430"/>
</g>
</svg>
