<svg preserveAspectRatio="none" width="100%" height="100%" overflow="visible" style="display: block;" viewBox="0 0 21 21" fill="none" xmlns="http://www.w3.org/2000/svg">
<g id="circum:dark">
<path id="Vector" d="M11.1484 18.3024C10.7398 18.3021 10.3318 18.2714 9.92775 18.2105C8.15836 17.9307 6.53412 17.065 5.31532 15.7522C4.09651 14.4393 3.35371 12.7553 3.20595 10.9701C3.05818 9.18478 3.51401 7.40158 4.50038 5.90622C5.48676 4.41086 6.94656 3.28991 8.64587 2.723C8.82776 2.66149 9.02319 2.65191 9.21022 2.69534C9.39725 2.73878 9.56846 2.8335 9.70462 2.96887C9.85223 3.11257 9.95699 3.29446 10.0072 3.49425C10.0574 3.69403 10.0511 3.90384 9.989 4.10025C9.75542 4.8591 9.65101 5.6518 9.68012 6.44525C9.74639 7.68963 10.1329 8.89581 10.8022 9.94697C11.4715 10.9981 12.4009 11.8586 13.5004 12.4451C14.4905 13.008 15.6086 13.3072 16.7475 13.314C16.9458 13.3167 17.1396 13.3737 17.3078 13.4787C17.4761 13.5837 17.6124 13.7328 17.702 13.9097C17.7916 14.0866 17.831 14.2847 17.8161 14.4825C17.8012 14.6802 17.7324 14.8702 17.6173 15.0316C16.8723 16.0472 15.8982 16.8727 14.7742 17.441C13.6502 18.0093 12.4079 18.3045 11.1484 18.3024ZM8.97837 3.54375C8.95901 3.54379 8.9398 3.54704 8.9215 3.55337C7.85776 3.90638 6.89239 4.50552 6.10392 5.30205C5.31546 6.09858 4.72617 7.07001 4.38402 8.13728C4.04186 9.20455 3.95649 10.3375 4.13487 11.444C4.31324 12.5505 4.75031 13.5993 5.41052 14.5049C6.07073 15.4106 6.93543 16.1477 7.93426 16.6561C8.9331 17.1645 10.0378 17.4299 11.1586 17.4308C12.2794 17.4316 13.3845 17.1678 14.3841 16.6609C15.3837 16.154 16.2495 15.4183 16.9111 14.5136C16.9323 14.4839 16.9446 14.4489 16.9466 14.4125C16.9486 14.3761 16.9403 14.3398 16.9225 14.308C16.9069 14.2731 16.8816 14.2433 16.8497 14.2223C16.8178 14.2012 16.7805 14.1897 16.7423 14.189C15.4574 14.1817 14.1959 13.8455 13.0777 13.2125C11.8454 12.5528 10.8044 11.5858 10.0558 10.4054C9.30723 9.22489 8.8764 7.871 8.80512 6.475C8.77366 5.58426 8.89197 4.69456 9.15513 3.843C9.16813 3.79982 9.16939 3.75395 9.15878 3.71012C9.14817 3.66629 9.12607 3.62608 9.09475 3.59362C9.07986 3.57771 9.06183 3.56506 9.04179 3.55648C9.02176 3.54789 9.00017 3.54356 8.97837 3.54375Z" fill="white"/>
</g>
</svg>
