<svg preserveAspectRatio="none" width="100%" height="100%" overflow="visible" style="display: block;" viewBox="0 0 1394 287" fill="none" xmlns="http://www.w3.org/2000/svg">
<g id="PORTFOLIO" opacity="0.24">
<mask id="path-1-outside-1_0_11" maskUnits="userSpaceOnUse" x="0" y="0" width="1394" height="287" fill="black">
<rect fill="white" width="1394" height="287"/>
<path d="M75.8558 3.40168C88.9884 3.40168 100.545 7.40448 110.526 15.0098C120.507 22.6152 128.386 33.4228 133.902 47.4326C139.418 61.8427 142.307 78.2542 142.307 96.6671C142.307 115.48 139.418 131.892 133.902 145.902C128.386 159.912 120.507 170.719 110.526 178.324C100.545 185.93 88.9884 189.532 75.8558 189.532H40.3978V283.598H1V3.40168H75.8558ZM40.3978 139.497H72.1787C81.3715 139.497 88.7258 135.895 94.2415 127.889C99.4945 120.284 102.384 109.876 102.384 96.6671C102.384 83.4579 99.4945 73.0506 94.2415 65.045C88.7258 57.4396 81.3715 53.4368 72.1787 53.4368H40.3978V139.497Z"/>
<path d="M327.758 216.751C319.878 238.367 309.109 255.579 295.451 267.587C281.531 279.996 265.772 286 248.174 286C230.314 286 214.555 279.996 200.897 267.587C186.976 255.579 176.207 238.367 168.59 216.751C160.711 195.136 157.034 170.719 157.034 143.5C157.034 116.681 160.711 92.264 168.59 70.6489C176.207 49.0337 186.976 31.8216 200.897 19.4129C214.555 7.40448 230.314 1 248.174 1C265.772 1 281.531 7.40448 295.451 19.4129C309.109 31.8216 319.878 49.0337 327.758 70.6489C335.374 92.264 339.314 116.681 339.314 143.5C339.314 170.719 335.374 195.136 327.758 216.751ZM203.523 190.733C207.726 204.743 213.504 215.551 221.383 223.556C229 231.562 237.931 235.164 248.174 235.164C258.155 235.164 266.822 231.562 274.702 223.556C282.319 215.551 288.36 204.743 292.562 190.733C296.765 177.124 298.866 161.112 298.866 143.5C298.866 125.888 296.765 110.277 292.562 96.2669C288.36 82.6573 282.319 71.8497 274.702 63.8441C266.822 55.8385 258.155 51.8357 248.174 51.8357C237.931 51.8357 229 55.8385 221.383 63.8441C213.504 71.8497 207.726 82.6573 203.523 96.2669C199.321 110.277 197.219 125.888 197.219 143.5C197.219 161.112 199.321 177.124 203.523 190.733Z"/>
<path d="M438.028 3.40168C451.161 3.40168 462.98 7.40448 473.224 15.0098C483.467 22.6152 491.347 33.4228 497.125 47.4326C502.641 61.8427 505.53 78.2542 505.53 96.6671C505.53 114.68 502.641 130.691 497.125 144.301C491.347 157.91 483.73 168.317 474.012 175.522L510.258 283.598H466.657L435.927 189.532H402.57V283.598H363.172V3.40168H438.028ZM402.57 139.497H434.876C444.069 139.497 451.424 135.895 456.939 127.889C462.455 120.284 465.344 109.876 465.344 96.6671C465.344 83.4579 462.455 73.0506 456.939 65.045C451.424 57.4396 444.069 53.4368 434.876 53.4368H402.57V139.497Z"/>
<path d="M512.219 3.40168H657.728V55.0379H604.673V283.598H565.275V55.0379H512.219V3.40168Z"/>
<path d="M679.176 3.40168H800.521V55.0379H718.573V120.684H785.812V169.919H718.573V283.598H679.176V3.40168Z"/>
<path d="M978.488 216.751C970.608 238.367 959.84 255.579 946.182 267.587C932.261 279.996 916.502 286 898.905 286C881.044 286 865.285 279.996 851.627 267.587C837.707 255.579 826.938 238.367 819.321 216.751C811.441 195.136 807.764 170.719 807.764 143.5C807.764 116.681 811.441 92.264 819.321 70.6489C826.938 49.0337 837.707 31.8216 851.627 19.4129C865.285 7.40448 881.044 1 898.905 1C916.502 1 932.261 7.40448 946.182 19.4129C959.84 31.8216 970.608 49.0337 978.488 70.6489C986.105 92.264 990.045 116.681 990.045 143.5C990.045 170.719 986.105 195.136 978.488 216.751ZM854.254 190.733C858.456 204.743 864.234 215.551 872.114 223.556C879.731 231.562 888.661 235.164 898.905 235.164C908.885 235.164 917.553 231.562 925.432 223.556C933.049 215.551 939.09 204.743 943.293 190.733C947.495 177.124 949.596 161.112 949.596 143.5C949.596 125.888 947.495 110.277 943.293 96.2669C939.09 82.6573 933.049 71.8497 925.432 63.8441C917.553 55.8385 908.885 51.8357 898.905 51.8357C888.661 51.8357 879.731 55.8385 872.114 63.8441C864.234 71.8497 858.456 82.6573 854.254 96.2669C850.051 110.277 847.95 125.888 847.95 143.5C847.95 161.112 850.051 177.124 854.254 190.733Z"/>
<path d="M1013.9 283.598V3.40168H1053.3V231.962H1126.32V283.598H1013.9Z"/>
<path d="M1147.54 3.40168H1186.94V283.598H1147.54V3.40168Z"/>
<path d="M1381.44 216.751C1373.56 238.367 1362.8 255.579 1349.14 267.587C1335.22 279.996 1319.46 286 1301.86 286C1284 286 1268.24 279.996 1254.58 267.587C1240.66 255.579 1229.89 238.367 1222.28 216.751C1214.4 195.136 1210.72 170.719 1210.72 143.5C1210.72 116.681 1214.4 92.264 1222.28 70.6489C1229.89 49.0337 1240.66 31.8216 1254.58 19.4129C1268.24 7.40448 1284 1 1301.86 1C1319.46 1 1335.22 7.40448 1349.14 19.4129C1362.8 31.8216 1373.56 49.0337 1381.44 70.6489C1389.06 92.264 1393 116.681 1393 143.5C1393 170.719 1389.06 195.136 1381.44 216.751ZM1257.21 190.733C1261.41 204.743 1267.19 215.551 1275.07 223.556C1282.69 231.562 1291.62 235.164 1301.86 235.164C1311.84 235.164 1320.51 231.562 1328.39 223.556C1336 215.551 1342.05 204.743 1346.25 190.733C1350.45 177.124 1352.55 161.112 1352.55 143.5C1352.55 125.888 1350.45 110.277 1346.25 96.2669C1342.05 82.6573 1336 71.8497 1328.39 63.8441C1320.51 55.8385 1311.84 51.8357 1301.86 51.8357C1291.62 51.8357 1282.69 55.8385 1275.07 63.8441C1267.19 71.8497 1261.41 82.6573 1257.21 96.2669C1253.01 110.277 1250.91 125.888 1250.91 143.5C1250.91 161.112 1253.01 177.124 1257.21 190.733Z"/>
</mask>
<path d="M75.8558 3.40168C88.9884 3.40168 100.545 7.40448 110.526 15.0098C120.507 22.6152 128.386 33.4228 133.902 47.4326C139.418 61.8427 142.307 78.2542 142.307 96.6671C142.307 115.48 139.418 131.892 133.902 145.902C128.386 159.912 120.507 170.719 110.526 178.324C100.545 185.93 88.9884 189.532 75.8558 189.532H40.3978V283.598H1V3.40168H75.8558ZM40.3978 139.497H72.1787C81.3715 139.497 88.7258 135.895 94.2415 127.889C99.4945 120.284 102.384 109.876 102.384 96.6671C102.384 83.4579 99.4945 73.0506 94.2415 65.045C88.7258 57.4396 81.3715 53.4368 72.1787 53.4368H40.3978V139.497Z" stroke="#AC093E" stroke-width="2" mask="url(#path-1-outside-1_0_11)"/>
<path d="M327.758 216.751C319.878 238.367 309.109 255.579 295.451 267.587C281.531 279.996 265.772 286 248.174 286C230.314 286 214.555 279.996 200.897 267.587C186.976 255.579 176.207 238.367 168.59 216.751C160.711 195.136 157.034 170.719 157.034 143.5C157.034 116.681 160.711 92.264 168.59 70.6489C176.207 49.0337 186.976 31.8216 200.897 19.4129C214.555 7.40448 230.314 1 248.174 1C265.772 1 281.531 7.40448 295.451 19.4129C309.109 31.8216 319.878 49.0337 327.758 70.6489C335.374 92.264 339.314 116.681 339.314 143.5C339.314 170.719 335.374 195.136 327.758 216.751ZM203.523 190.733C207.726 204.743 213.504 215.551 221.383 223.556C229 231.562 237.931 235.164 248.174 235.164C258.155 235.164 266.822 231.562 274.702 223.556C282.319 215.551 288.36 204.743 292.562 190.733C296.765 177.124 298.866 161.112 298.866 143.5C298.866 125.888 296.765 110.277 292.562 96.2669C288.36 82.6573 282.319 71.8497 274.702 63.8441C266.822 55.8385 258.155 51.8357 248.174 51.8357C237.931 51.8357 229 55.8385 221.383 63.8441C213.504 71.8497 207.726 82.6573 203.523 96.2669C199.321 110.277 197.219 125.888 197.219 143.5C197.219 161.112 199.321 177.124 203.523 190.733Z" stroke="#AC093E" stroke-width="2" mask="url(#path-1-outside-1_0_11)"/>
<path d="M438.028 3.40168C451.161 3.40168 462.98 7.40448 473.224 15.0098C483.467 22.6152 491.347 33.4228 497.125 47.4326C502.641 61.8427 505.53 78.2542 505.53 96.6671C505.53 114.68 502.641 130.691 497.125 144.301C491.347 157.91 483.73 168.317 474.012 175.522L510.258 283.598H466.657L435.927 189.532H402.57V283.598H363.172V3.40168H438.028ZM402.57 139.497H434.876C444.069 139.497 451.424 135.895 456.939 127.889C462.455 120.284 465.344 109.876 465.344 96.6671C465.344 83.4579 462.455 73.0506 456.939 65.045C451.424 57.4396 444.069 53.4368 434.876 53.4368H402.57V139.497Z" stroke="#AC093E" stroke-width="2" mask="url(#path-1-outside-1_0_11)"/>
<path d="M512.219 3.40168H657.728V55.0379H604.673V283.598H565.275V55.0379H512.219V3.40168Z" stroke="#AC093E" stroke-width="2" mask="url(#path-1-outside-1_0_11)"/>
<path d="M679.176 3.40168H800.521V55.0379H718.573V120.684H785.812V169.919H718.573V283.598H679.176V3.40168Z" stroke="#AC093E" stroke-width="2" mask="url(#path-1-outside-1_0_11)"/>
<path d="M978.488 216.751C970.608 238.367 959.84 255.579 946.182 267.587C932.261 279.996 916.502 286 898.905 286C881.044 286 865.285 279.996 851.627 267.587C837.707 255.579 826.938 238.367 819.321 216.751C811.441 195.136 807.764 170.719 807.764 143.5C807.764 116.681 811.441 92.264 819.321 70.6489C826.938 49.0337 837.707 31.8216 851.627 19.4129C865.285 7.40448 881.044 1 898.905 1C916.502 1 932.261 7.40448 946.182 19.4129C959.84 31.8216 970.608 49.0337 978.488 70.6489C986.105 92.264 990.045 116.681 990.045 143.5C990.045 170.719 986.105 195.136 978.488 216.751ZM854.254 190.733C858.456 204.743 864.234 215.551 872.114 223.556C879.731 231.562 888.661 235.164 898.905 235.164C908.885 235.164 917.553 231.562 925.432 223.556C933.049 215.551 939.09 204.743 943.293 190.733C947.495 177.124 949.596 161.112 949.596 143.5C949.596 125.888 947.495 110.277 943.293 96.2669C939.09 82.6573 933.049 71.8497 925.432 63.8441C917.553 55.8385 908.885 51.8357 898.905 51.8357C888.661 51.8357 879.731 55.8385 872.114 63.8441C864.234 71.8497 858.456 82.6573 854.254 96.2669C850.051 110.277 847.95 125.888 847.95 143.5C847.95 161.112 850.051 177.124 854.254 190.733Z" stroke="#AC093E" stroke-width="2" mask="url(#path-1-outside-1_0_11)"/>
<path d="M1013.9 283.598V3.40168H1053.3V231.962H1126.32V283.598H1013.9Z" stroke="#AC093E" stroke-width="2" mask="url(#path-1-outside-1_0_11)"/>
<path d="M1147.54 3.40168H1186.94V283.598H1147.54V3.40168Z" stroke="#AC093E" stroke-width="2" mask="url(#path-1-outside-1_0_11)"/>
<path d="M1381.44 216.751C1373.56 238.367 1362.8 255.579 1349.14 267.587C1335.22 279.996 1319.46 286 1301.86 286C1284 286 1268.24 279.996 1254.58 267.587C1240.66 255.579 1229.89 238.367 1222.28 216.751C1214.4 195.136 1210.72 170.719 1210.72 143.5C1210.72 116.681 1214.4 92.264 1222.28 70.6489C1229.89 49.0337 1240.66 31.8216 1254.58 19.4129C1268.24 7.40448 1284 1 1301.86 1C1319.46 1 1335.22 7.40448 1349.14 19.4129C1362.8 31.8216 1373.56 49.0337 1381.44 70.6489C1389.06 92.264 1393 116.681 1393 143.5C1393 170.719 1389.06 195.136 1381.44 216.751ZM1257.21 190.733C1261.41 204.743 1267.19 215.551 1275.07 223.556C1282.69 231.562 1291.62 235.164 1301.86 235.164C1311.84 235.164 1320.51 231.562 1328.39 223.556C1336 215.551 1342.05 204.743 1346.25 190.733C1350.45 177.124 1352.55 161.112 1352.55 143.5C1352.55 125.888 1350.45 110.277 1346.25 96.2669C1342.05 82.6573 1336 71.8497 1328.39 63.8441C1320.51 55.8385 1311.84 51.8357 1301.86 51.8357C1291.62 51.8357 1282.69 55.8385 1275.07 63.8441C1267.19 71.8497 1261.41 82.6573 1257.21 96.2669C1253.01 110.277 1250.91 125.888 1250.91 143.5C1250.91 161.112 1253.01 177.124 1257.21 190.733Z" stroke="#AC093E" stroke-width="2" mask="url(#path-1-outside-1_0_11)"/>
</g>
</svg>
