<svg preserveAspectRatio="none" width="100%" height="100%" overflow="visible" style="display: block;" viewBox="0 0 26 26" fill="none" xmlns="http://www.w3.org/2000/svg">
<g id="lineicons:scroll-down-2">
<path id="Vector" d="M12.4258 17.6345C12.5782 17.7867 12.7847 17.8721 13 17.8721C13.2153 17.8721 13.4218 17.7867 13.5742 17.6345L16.0117 15.1981C16.1552 15.0441 16.2333 14.8403 16.2296 14.6299C16.2259 14.4194 16.1406 14.2185 15.9918 14.0697C15.8429 13.9208 15.6421 13.8355 15.4316 13.8318C15.2211 13.8281 15.0174 13.9062 14.8633 14.0498L13 15.9098L11.1367 14.0476C11.0617 13.97 10.972 13.9082 10.8728 13.8656C10.7737 13.8231 10.6671 13.8007 10.5592 13.7998C10.4513 13.799 10.3443 13.8196 10.2445 13.8605C10.1447 13.9014 10.054 13.9617 9.97772 14.0381C9.90147 14.1144 9.84118 14.2051 9.80037 14.305C9.75957 14.4049 9.73906 14.5119 9.74005 14.6198C9.74104 14.7276 9.7635 14.8342 9.80613 14.9334C9.84876 15.0325 9.9107 15.1221 9.98833 15.197L12.4258 17.6345ZM13 9.80958C12.7701 9.80958 12.5497 9.71827 12.3872 9.55574C12.2246 9.39321 12.1333 9.17277 12.1333 8.94292C12.1333 8.71306 12.2246 8.49262 12.3872 8.33009C12.5497 8.16756 12.7701 8.07625 13 8.07625C13.2299 8.07625 13.4503 8.16756 13.6128 8.33009C13.7754 8.49262 13.8667 8.71306 13.8667 8.94292C13.8667 9.17277 13.7754 9.39321 13.6128 9.55574C13.4503 9.71827 13.2299 9.80958 13 9.80958ZM12.1333 11.9936C12.1333 12.1074 12.1558 12.2201 12.1993 12.3252C12.2429 12.4304 12.3067 12.5259 12.3872 12.6064C12.4677 12.6869 12.5632 12.7507 12.6683 12.7943C12.7735 12.8378 12.8862 12.8603 13 12.8603C13.1138 12.8603 13.2265 12.8378 13.3317 12.7943C13.4368 12.7507 13.5323 12.6869 13.6128 12.6064C13.6933 12.5259 13.7571 12.4304 13.8007 12.3252C13.8442 12.2201 13.8667 12.1074 13.8667 11.9936C13.8667 11.7637 13.7754 11.5433 13.6128 11.3808C13.4503 11.2182 13.2299 11.1269 13 11.1269C12.7701 11.1269 12.5497 11.2182 12.3872 11.3808C12.2246 11.5433 12.1333 11.7637 12.1333 11.9936Z" fill="white"/>
<path id="Vector_2" fill-rule="evenodd" clip-rule="evenodd" d="M13.125 0C10.9701 0 8.90349 1.02723 7.37976 2.85571C5.85602 4.68419 5 7.16414 5 9.75V16.25C5 18.8359 5.85602 21.3158 7.37976 23.1443C8.90349 24.9728 10.9701 26 13.125 26C15.2799 26 17.3465 24.9728 18.8702 23.1443C20.394 21.3158 21.25 18.8359 21.25 16.25V9.75C21.25 7.16414 20.394 4.68419 18.8702 2.85571C17.3465 1.02723 15.2799 0 13.125 0ZM6.625 9.75C6.625 7.68131 7.30982 5.69735 8.52881 4.23457C9.74779 2.77178 11.4011 1.95 13.125 1.95C14.8489 1.95 16.5022 2.77178 17.7212 4.23457C18.9402 5.69735 19.625 7.68131 19.625 9.75V16.25C19.625 18.3187 18.9402 20.3026 17.7212 21.7654C16.5022 23.2282 14.8489 24.05 13.125 24.05C11.4011 24.05 9.74779 23.2282 8.52881 21.7654C7.30982 20.3026 6.625 18.3187 6.625 16.25V9.75Z" fill="white"/>
</g>
</svg>
